<?xml version="1.0" encoding="UTF-8"?>
<svg version="1.1" xmlns="http://www.w3.org/2000/svg" width="360" height="360">
<path d="M0 0 C3.36335561 2.77552955 5.00975637 5.65256496 6.76171875 9.60546875 C7.24060547 10.67087891 7.71949219 11.73628906 8.21289062 12.83398438 C8.69951172 13.94064453 9.18613281 15.04730469 9.6875 16.1875 C10.66883118 18.39009974 11.65181303 20.59196506 12.63671875 22.79296875 C13.28193481 24.25512817 13.28193481 24.25512817 13.94018555 25.74682617 C14.80687544 27.91983922 14.80687544 27.91983922 16 29 C17.93589766 29.32145833 19.88089995 29.58841304 21.828125 29.83203125 C23.02050781 29.99123047 24.21289062 30.15042969 25.44140625 30.31445312 C27.96361771 30.64428078 30.48707536 30.96472578 33.01171875 31.27539062 C34.80802734 31.51999023 34.80802734 31.51999023 36.640625 31.76953125 C38.28853027 31.97993042 38.28853027 31.97993042 39.96972656 32.19458008 C43.50414744 33.13399794 45.39419257 34.4601961 48 37 C48.75 39.75 48.75 39.75 48 43 C45.16809977 47.35990395 41.46877649 50.69864 37.27734375 53.7109375 C33.05557696 56.96144849 29.18011834 60.02496002 27 65 C26.38277439 72.89571092 28.52477502 80.60570763 30.39331055 88.22021484 C31.37551498 92.72056882 31.96406988 96.45748819 29.4375 100.5 C26.68707761 102.19256763 25.29680116 102.19312275 22.16479492 101.66357422 C16.37099681 99.88760227 11.16008842 96.15552978 6.00585938 93.04101562 C0.79941783 89.84742915 0.79941783 89.84742915 -5.0625 89.28125 C-6.031875 89.8484375 -7.00125 90.415625 -8 91 C-8.73081787 91.40758545 -9.46163574 91.8151709 -10.21459961 92.23510742 C-13.70144964 94.18979994 -17.14607747 96.20982627 -20.56835938 98.27539062 C-27.82430608 102.44906821 -27.82430608 102.44906821 -32.00390625 102.01953125 C-35 101 -35 101 -37 98 C-37.08203125 95.56640625 -37.08203125 95.56640625 -36.8125 92.5625 C-36.69261719 90.81839844 -36.69261719 90.81839844 -36.5703125 89.0390625 C-36.24328613 85.99847778 -35.50568637 83.30192963 -34.5546875 80.3984375 C-33.02006489 75.17342529 -31.66636972 70.40213352 -33 65 C-37.64764466 57.75318673 -44.40284762 52.17075805 -51.00292969 46.74560547 C-53.57270249 44.49941042 -53.93212705 43.5203593 -54.375 40.125 C-54 37 -54 37 -51.85864258 34.84863281 C-48.59214495 32.73624747 -46.73901415 32.46058946 -42.88671875 32.296875 C-30.80944099 31.98672064 -30.80944099 31.98672064 -20.0546875 27.45117188 C-17.22856281 23.72905514 -15.86793476 19.53267573 -14.62548828 15.06982422 C-13.65384859 11.85453878 -12.16820885 9.04508231 -10.625 6.0625 C-10.16351563 5.10472656 -9.70203125 4.14695313 -9.2265625 3.16015625 C-7.0183464 -0.72883579 -4.18153973 -0.41815397 0 0 Z " fill="#23004E" transform="translate(183,127)"/>
</svg>
